PathFileType	4	(X/Y/Z)	C:/Users/opensim2020/Desktop/walking_exp_matlab/subject06_walking22_straight_03.trc																																																																																																																																		
DataRate	CameraRate	NumFrames	NumMarkers	Units	OrigDataRate	OrigDataStartFrame	OrigNumFrames																																																																																																																														
100	100	7	44	mm	100	1684	77																																																																																																																														
Frame#	Time	LFHD			RFHD			LBHD			RBHD			C7			T10			CLAV			STRN			RBAK			LSHO			LUPA			LELB			LFRM			LWRA			LWRB			LFIN			RSHO			RUPA			RELB			RFRM			RWRA			RWRB			RFIN			LASI			RASI			LPSI			RPSI			LTHI			LKNE			LTIB			LANK			LHEE			LTOE			RTHI			RKNE			RTIB			RANK			RHEE			RTOE			*39			*40			*41			*42			*43		
		X1	Y1	Z1	X2	Y2	Z2	X3	Y3	Z3	X4	Y4	Z4	X5	Y5	Z5	X6	Y6	Z6	X7	Y7	Z7	X8	Y8	Z8	X9	Y9	Z9	X10	Y10	Z10	X11	Y11	Z11	X12	Y12	Z12	X13	Y13	Z13	X14	Y14	Z14	X15	Y15	Z15	X16	Y16	Z16	X17	Y17	Z17	X18	Y18	Z18	X19	Y19	Z19	X20	Y20	Z20	X21	Y21	Z21	X22	Y22	Z22	X23	Y23	Z23	X24	Y24	Z24	X25	Y25	Z25	X26	Y26	Z26	X27	Y27	Z27	X28	Y28	Z28	X29	Y29	Z29	X30	Y30	Z30	X31	Y31	Z31	X32	Y32	Z32	X33	Y33	Z33	X34	Y34	Z34	X35	Y35	Z35	X36	Y36	Z36	X37	Y37	Z37	X38	Y38	Z38	X39	Y39	Z39	X40	Y40	Z40	X41	Y41	Z41	X42	Y42	Z42	X43	Y43	Z43	X44	Y44	Z44
																																																																																																																																					
1	0	-557.34583	1630.69165	1371.80579	-542.99261	1630.52368	1503.16296	-692.83545	1587.08423	1390.51892	-677.0097	1591.10803	1519.09436	-697.7995	1437.68127	1446.18079	-772.68634	1115.5896	1448.70776	-595.8761	1350.09631	1448.76233	-576.20471	1172.66943	1448.16577	-792.41937	1280.9585	1528.48718	-645.99945	1385.52515	1285.91626	-700.37207	1196.63904	1205.20093	-739.14252	1092.54626	1186.57458	-759.974	946.77716	1150.37854	-735.96558	815.65991	1176.89392	-797.16046	833.24329	1143.78638	-782.39435	744.35107	1131.46033	-640.5976	1390.15186	1607.26746	-679.93488	1199.70044	1706.06506	-662.20258	1081.18201	1727.1355	-608.18726	975.69147	1743.6532	-503.0033	872.29871	1704.43079	-549.33838	851.47906	1748.50574	-484.37317	798.14185	1745.495	-596.13538	942.02844	1358.94568	-618.47211	951.01422	1577.04907	-754.27502	971.22461	1365.06079	-767.27802	986.39642	1532.53638	-571.56989	642.05505	1291.22388	-490.62524	501.69946	1323.651	-488.46921	247.8443	1343.71619	-466.93289	78.97163	1390.5	-502.03503	60.68421	1440.20593	-324.05716	69.50965	1389.38062	-721.50757	628.05164	1625.34253	-742.89789	502.76547	1606.427	-855.61963	256.86591	1608.96484	-917.08582	78.7	1564.72864	-963.54071	57.95924	1522.0105	-769.62628	36.3982	1565.20911	-647.36499	1681.03125	1437.73608	NaN	NaN	NaN	NaN	NaN	NaN	NaN	NaN	NaN	NaN	NaN	NaN
2	0.01	-544.22809	1627.77039	1372.03564	-529.66156	1627.72668	1503.35938	-679.63605	1583.91821	1391.08289	-663.57928	1588.08374	1519.60205	-684.67621	1434.81042	1446.94897	-758.97711	1112.42896	1449.46948	-582.2453	1347.13342	1449.36816	-562.55743	1169.79626	1449.03601	-778.70258	1278.10376	1529.69275	-632.8349	1382.34412	1286.4856	-689.92963	1194.43726	1205.7644	-729.91272	1090.85132	1187.28333	-754.21735	945.90942	1150.43982	-732.4491	814.05402	1175.60706	-793.80811	833.22888	1143.3501	-781.55951	744.10876	1130.44714	-626.72607	1387.55762	1607.89575	-665.19818	1197.42102	1707.41406	-645.89148	1079.27356	1728.89453	-589.32208	975.45081	1744.64233	-481.64487	875.53363	1703.7688	-526.98572	853.01868	1748.22485	-460.28885	801.83978	1744.39722	-580.98517	939.24707	1360.0686	-605.552	947.75507	1577.45264	-739.12848	968.14417	1365.41907	-753.64771	983.30219	1532.66504	-559.34009	637.80115	1291.27771	-477.66895	497.69501	1323.77502	-460.90988	244.64131	1341.95532	-428.5289	76.96446	1387.7489	-463.45218	56.85905	1437.21704	-285.31952	75.57033	1387.48022	-711.19623	625.76599	1625.6366	-734.72546	500.70593	1606.97266	-851.74377	256.80545	1608.82898	-916.28906	80.04334	1564.72168	-963.1781	60.23925	1522.03833	-769.51788	36.22354	1565.10071	-634.22852	1678.02258	1438.14026	NaN	NaN	NaN	NaN	NaN	NaN	NaN	NaN	NaN	NaN	NaN	NaN
3	0.02	-531.02686	1624.78857	1372.15881	-516.22357	1624.83777	1503.51819	-666.33722	1580.66943	1391.54138	-650.08539	1584.99304	1520.12549	-670.5824	1431.6095	1447.25684	-745.1601	1109.17261	1450.07593	-568.63501	1344.00256	1449.81177	-548.90637	1166.80359	1449.82971	-765.08923	1275.10876	1530.75366	-619.29224	1378.98486	1286.90161	-679.12268	1192.12366	1206.31006	-720.82635	1089.17969	1187.80444	-747.98627	944.9115	1150.46436	-728.41229	812.48212	1174.52673	-789.87268	833.18329	1143.151	-779.79779	743.73303	1129.82898	-612.75256	1384.82837	1608.39502	-650.3717	1195.03613	1708.66321	-629.86127	1077.30945	1730.40076	-570.8042	975.11761	1745.48022	-460.89719	878.54169	1703.20947	-504.95923	854.50861	1748.02734	-436.85135	805.45996	1743.30664	-565.48737	936.37128	1360.95166	-591.14606	945.08209	1578.75122	-724.36084	965.26617	1365.25989	-739.25946	979.98822	1532.47107	-546.73285	633.17047	1290.96191	-464.56628	493.46869	1323.93433	-434.12891	242.17014	1340.0658	-392.01276	76.14271	1384.92944	-425.65515	53.98204	1433.6095	-248.84488	82.26952	1385.72205	-700.66736	623.51666	1626.02832	-726.00531	498.70004	1607.51685	-847.42896	256.84473	1608.79712	-915.23041	81.65398	1564.68457	-962.65393	63.02479	1522.14221	-769.49561	36.03403	1564.94727	-621.02301	1674.88245	1438.45764	NaN	NaN	NaN	NaN	NaN	NaN	NaN	NaN	NaN	NaN	NaN	NaN
4	0.03	-517.78497	1621.8407	1372.20166	-502.70844	1622.02002	1503.54041	-652.84503	1577.39502	1391.8844	-636.3443	1581.75146	1520.35596	-657.27087	1428.71497	1447.72766	-731.07434	1106.01794	1450.39966	-554.66315	1340.8457	1450.13953	-535.20892	1163.7002	1450.32495	-751.15997	1272.17212	1531.59558	-605.56848	1375.69727	1287.12158	-667.94507	1189.69995	1206.83557	-711.27271	1087.40149	1188.27258	-741.34698	943.89502	1150.45911	-723.58057	810.9455	1173.56152	-785.00256	832.84698	1143.03027	-777.12042	743.33044	1129.34802	-598.63458	1382.10413	1608.74927	-635.42212	1192.55859	1709.72681	-613.87494	1075.3241	1731.82434	-552.65979	974.72705	1746.16235	-440.65482	881.33655	1702.77808	-483.52475	855.92926	1747.82666	-414.06628	808.89581	1742.39185	-549.54968	933.49866	1361.69946	-576.9422	942.2478	1579.86499	-708.30212	961.99353	1364.86072	-725.49036	976.85797	1532.12683	-534.25232	628.62158	1290.16895	-451.13675	489.54373	1324.02612	-408.83871	240.49333	1338.09253	-357.8111	76.40965	1381.7749	-390.62415	52.23859	1429.9469	-214.63728	89.50259	1383.54065	-689.80109	621.42859	1626.53943	-716.80151	496.83554	1608.12146	-842.99591	257.42993	1608.73401	-914.47253	83.72355	1565.0293	-962.10706	66.03877	1522.32507	-769.47723	35.84111	1564.86584	-607.74127	1671.71118	1438.62219	NaN	NaN	NaN	NaN	NaN	NaN	NaN	NaN	NaN	NaN	NaN	NaN
5	0.04	-504.32968	1619.11633	1372.10522	-488.97647	1619.41882	1503.58521	-639.2464	1574.04663	1392.0614	-622.54572	1578.63245	1520.49524	-643.20819	1425.79932	1447.84277	-716.83264	1102.98962	1450.4635	-540.58112	1337.70569	1450.16492	-521.37292	1160.60205	1450.59204	-737.16156	1269.23828	1532.22791	-591.61438	1372.40857	1287.10718	-656.47449	1187.27002	1207.0697	-701.40442	1085.61145	1188.60071	-733.86884	942.79126	1150.42371	-718.3222	809.42615	1172.49585	-779.4259	832.51099	1143.00781	-773.29932	742.8374	1129.00793	-584.2525	1379.38477	1608.95313	-620.42621	1190.12097	1710.56018	-598.10248	1073.32471	1733.01172	-534.43512	974.36639	1746.92981	-420.94623	883.89301	1702.32849	-462.69809	857.27911	1747.67981	-391.99918	812.20813	1741.49915	-533.31659	930.65015	1362.39319	-563.00641	939.35962	1580.7146	-692.37988	959.04779	1364.25732	-711.37769	973.72156	1531.59216	-520.83618	624.54956	1289.42908	-437.15198	486.0954	1323.86438	-384.84723	239.53992	1335.88452	-326.24008	77.43616	1378.64221	-358.34332	51.62045	1426.38623	-183.45343	96.19223	1381.44946	-678.83527	619.76855	1626.99683	-707.11017	495.29208	1608.90515	-837.88672	258.2323	1608.93677	-913.31677	86.17901	1565.31531	-961.32123	69.70924	1522.63354	-769.56281	35.67536	1564.79419	-594.41711	1668.64856	1438.67981	NaN	NaN	NaN	NaN	NaN	NaN	NaN	NaN	NaN	NaN	NaN	NaN
6	0.05	-490.75	1616.6698	1371.94434	-475.29175	1616.97925	1503.29785	-625.46594	1570.99683	1392.11133	-608.56604	1575.56702	1520.52625	-628.48517	1423.14868	1447.6449	-702.16565	1100.17151	1450.26025	-526.20203	1334.77222	1449.98486	-507.46317	1157.57849	1450.39124	-723.08606	1266.63855	1532.73865	-577.75403	1369.40479	1286.91675	-644.67426	1184.90479	1207.25439	-691.09045	1083.89648	1188.90149	-725.78143	941.62799	1150.43494	-711.72882	808.02051	1171.71802	-772.84064	832.02478	1143.03052	-768.51361	742.30988	1128.81665	-569.53577	1376.80505	1609.04138	-605.26416	1187.81665	1711.25037	-581.97772	1071.47778	1734.2594	-516.73505	973.9328	1747.66821	-401.80338	886.15326	1701.96851	-442.60162	858.53937	1747.48401	-370.80661	815.12189	1740.74756	-516.75537	928.12335	1363.18799	-549.23529	936.69183	1581.23816	-676.02814	956.28491	1363.57715	-697.11707	970.70251	1530.73779	-506.0892	621.2887	1288.2002	-422.53995	483.23044	1323.20483	-361.86987	238.90932	1333.95972	-297.79529	78.72968	1375.85645	-329.70935	51.80609	1423.54785	-155.3461	101.99014	1379.62964	-667.32141	618.37872	1627.68481	-696.63531	493.97534	1609.75024	-832.26086	259.44739	1609.29871	-912.02441	89.35625	1565.80554	-960.23834	74.16231	1523.10193	-769.56775	35.6613	1564.81189	-581.02185	1665.73657	1438.66614	NaN	NaN	NaN	NaN	NaN	NaN	NaN	NaN	NaN	NaN	NaN	NaN
7	0.06	-477.04678	1614.68298	1371.66699	-461.30899	1614.95129	1503.02295	-611.40033	1568.17859	1391.98633	-594.34497	1572.74658	1520.39587	-615.28156	1421.51733	1447.92371	-687.33899	1097.89038	1450.03992	-511.69196	1332.23145	1449.52173	-493.3096	1154.93616	1449.9762	-708.29645	1264.36731	1532.85107	-563.70087	1366.76843	1286.41296	-632.55853	1182.70825	1207.25964	-680.29028	1082.24829	1189.07739	-716.91791	940.65277	1150.52417	-704.15283	806.72479	1171.03381	-765.38562	831.57446	1143.22131	-762.40717	741.77612	1128.81201	-554.34552	1374.44177	1608.9104	-589.98108	1185.71729	1711.72949	-566.05811	1069.78271	1735.32471	-499.3298	973.52448	1748.19165	-383.31168	888.13605	1701.62646	-423.06741	859.60004	1747.34717	-350.47607	817.81366	1740.11511	-500.15265	925.89203	1363.9939	-534.79852	934.66907	1582.34265	-659.36621	953.90094	1362.71375	-681.98199	968.05493	1529.45642	-490.39447	619.16864	1287.45581	-407.24274	480.89682	1322.12134	-341.39716	238.36012	1331.81067	-272.77014	79.64277	1373.75891	-303.41968	51.65876	1421.11572	-130.64851	106.10616	1378.01086	-655.31042	617.29364	1628.3689	-685.45154	492.98724	1610.72803	-826.19073	261.17014	1609.79077	-910.1861	93.04316	1566.33264	-958.73792	79.3013	1523.65698	-769.55084	35.75343	1564.91785	-567.48279	1663.17896	1438.55054	NaN	NaN	NaN	NaN	NaN	NaN	NaN	NaN	NaN	NaN	NaN	NaN
